# xmcd
#
# Track frame offsets: 
#        150
#        12372
#        29670
#        45930
#        58287
#        70145
#        85890
#        104640
#
# Disc length: 1573 seconds
#
# Revision: 0
# Processed by: cddbd v1.4PL0 Copyright (c) Steve Scherf et al.
# Submitted via: ExactAudioCopy v0.90a11
#
DISCID=6a062308
DTITLE=Walker Williams - Just Like That
DYEAR=1900
DGENRE=
TTITLE0=(She's Got) Somebody
TTITLE1=Daddy's Farm
TTITLE2=Single Tear
TTITLE3=Swingin' In Texas
TTITLE4=Dancin'
TTITLE5=The Preacher
TTITLE6=When I'm With You
TTITLE7=Just Like That
EXTD=
EXTT0=
EXTT1=
EXTT2=
EXTT3=
EXTT4=
EXTT5=
EXTT6=
EXTT7=
PLAYORDER=
